# xmcd CD database file
#
# Track frame offsets:
#	150
#	15000
#	36147
#	56685
#	72802
#	91667
#	113092
#	132137
#	155567
#	177559
#	200100
#	217684
#	242740
#	265525
#	282377
#	304395
#
# Disc length: 4411 seconds
#
# Revision: 1
# Processed by: cddbd v1.5.2PL0 Copyright (c) Steve Scherf et al.
# Submitted via: CDex 1.70beta2
#
DISCID=d7113910
DTITLE=Grapevine - Chronology
DYEAR=2004
DGENRE=Rock
TTITLE0=BREAKTHROUGH
TTITLE1=ぼくらなら
TTITLE2=会いにいく
TTITLE3=BLUE BACK
TTITLE4=ナツノヒカリ
TTITLE5=風待ち
TTITLE6=discord
TTITLE7=Our Song
TTITLE8=ふれていたい
TTITLE9=Reverb
TTITLE10=羽根
TTITLE11=光について
TTITLE12=スロウ
TTITLE13=白日
TTITLE14=君を待つ間
TTITLE15=そら
EXTD=YEAR: 2004
EXTT0=
EXTT1=
EXTT2=
EXTT3=
EXTT4=
EXTT5=
EXTT6=
EXTT7=
EXTT8=
EXTT9=
EXTT10=
EXTT11=
EXTT12=
EXTT13=
EXTT14=
EXTT15=
PLAYORDER=
